<?xml version="1.0" encoding="UTF-8"?>
<svg xmlns="http://www.w3.org/2000/svg" version="1.1" viewBox="0 0 2000 2000">
  <defs>
    <style>
      .cls-1 {
        fill: #fff;
      }
    </style>
  </defs>
  <!-- Generator: Adobe Illustrator 28.7.1, SVG Export Plug-In . SVG Version: 1.2.0 Build 142)  -->
  <g>
    <g id="Layer_1">
      <g>
        <path class="cls-1" d="M587.49,1775.75c-9.2-2.17-18.4-4.33-27.59-6.51-102.88-24.36-178.23-118.54-178.62-224.72-.48-128.88-.22-257.77-.08-386.65.05-46.91,33.29-81.06,77.96-80.79,44.1.26,76.87,34,76.94,80.2.21,125.34.05,250.69.09,376.03.02,56.95,30.11,87.17,86.84,87.18,252.71.02,505.42.02,758.13,0,57.21,0,86.71-29.51,86.74-86.92.07-123.32-.45-246.65.57-369.97.14-16.94,4.55-35.49,12.46-50.38,15.35-28.88,50.05-41.67,82.27-34.57,31.51,6.95,55.65,34.07,59.4,66.92.63,5.51.93,11.09.93,16.63.05,125.34.49,250.69-.1,376.03-.55,116.44-76.73,209.73-188.99,233.14-6.32,1.32-12.59,2.9-18.88,4.36h-828.07Z"/>
        <path class="cls-1" d="M1776.52,935.54c-8.77,28.61-24.94,50.92-54.67,59.94-30.92,9.38-57.61.7-80.52-21.54-71.45-69.35-143-138.59-214.52-207.87-125.96-122.03-251.9-244.09-377.91-366.08-31.07-30.08-66.69-29.92-97.73.14-196.4,190.25-392.79,380.5-589.21,570.73-36.09,34.95-81.16,37.74-113.62,7.17-33.82-31.84-33.15-81.23,2.09-115.55,62.28-60.65,124.84-121.01,187.28-181.5,136.49-132.23,274.46-262.99,408.87-397.3,69.44-69.4,214.87-87.91,304.06-1.59,199.75,193.33,399.5,386.66,598.66,580.59,11.74,11.43,18.27,28.22,27.23,42.52v30.33Z"/>
      </g>
    </g>
  </g>
</svg>