<?xml version="1.0" encoding="UTF-8"?>
<svg xmlns="http://www.w3.org/2000/svg" version="1.1" viewBox="0 0 2000 2000">
  <defs>
    <style>
      .cls-1 {
        fill: #fff;
      }
    </style>
  </defs>
  <!-- Generator: Adobe Illustrator 28.7.1, SVG Export Plug-In . SVG Version: 1.2.0 Build 142)  -->
  <g>
    <g id="Layer_1">
      <g>
        <path class="cls-1" d="M1165.09,172c57.25,9.84,97.38,46.58,137.31,85.01,87.76,84.45,176.43,167.98,265.34,251.23,43.09,40.35,63.5,88.91,63.41,147.96-.49,329.28-.16,658.57-.28,987.85-.03,88.65-53.42,158.39-137.01,178.61-15.01,3.63-30.89,5.07-46.37,5.08-298.08.29-596.17.31-894.25.16-107.19-.05-183.87-77.27-183.89-184.97-.09-427.91.62-855.82-.5-1283.72-.28-106.37,76.71-175.94,151.6-184.93,1.45-.17,2.76-1.49,4.13-2.28,213.5,0,427.01,0,640.51,0ZM1126.27,269.03h-18.78c-183.84,0-367.67-.02-551.51,0-56.71,0-89.61,32.65-89.61,89-.03,427.97-.03,855.95,0,1283.92,0,56.27,32.98,88.95,89.68,88.96,295.97.02,591.94.02,887.91,0,57.34,0,89.89-32.73,89.89-90.38.02-321.79.01-643.58.01-965.37v-18.02h-19.76c-87.88,0-175.75.02-263.63,0-78.09-.02-124.19-46.39-124.2-124.93-.01-81.39,0-162.78,0-244.17v-19.01ZM1481.06,560.12c-87.2-82.46-171.15-161.84-257.73-243.71,0,75.96-.04,147.5.02,219.04.02,20.19,4.45,24.63,24.61,24.65,72.15.06,144.31.02,216.46.02h16.64Z"/>
        <path class="cls-1" d="M990.61,915.89c-117.44,0-234.87.12-352.31-.07-37.91-.06-62.43-33.86-48.41-66.67,8.7-20.36,25.05-30.23,47.18-30.27,37.17-.06,74.34-.02,111.51-.02,197.7,0,395.4-.06,593.1.05,38.91.02,63.78,34.18,48.93,67.42-9.33,20.89-26.62,29.67-49.33,29.63-99.12-.19-198.24-.08-297.36-.08-17.78,0-35.55,0-53.33,0Z"/>
        <path class="cls-1" d="M990.56,1174.63c-117.44,0-234.87.12-352.31-.07-37.89-.06-62.4-33.91-48.35-66.71,8.72-20.35,25.08-30.2,47.21-30.23,40.4-.05,80.8-.02,121.21-.02,194.47,0,388.94-.06,583.41.05,38.89.02,63.76,34.24,48.88,67.46-9.35,20.88-26.66,29.63-49.36,29.59-101.27-.19-202.55-.08-303.82-.08-15.62,0-31.24,0-46.87,0Z"/>
        <path class="cls-1" d="M751.42,1433.37c-37.2,0-74.4.1-111.59-.03-31.55-.11-53.44-19.81-53.73-48.03-.29-28.82,21.88-48.9,54.41-48.94,74.4-.08,148.79-.08,223.19,0,32.33.04,55.02,20.42,54.74,48.82-.28,28.48-22.76,48.09-55.43,48.16-37.2.08-74.4.02-111.59.02Z"/>
      </g>
    </g>
  </g>
</svg>