<?xml version="1.0" encoding="UTF-8"?>
<svg xmlns="http://www.w3.org/2000/svg" version="1.1" viewBox="0 0 2000 2000">
  <defs>
    <style>
      .cls-1 {
        fill: #fff;
      }
    </style>
  </defs>
  <!-- Generator: Adobe Illustrator 28.7.1, SVG Export Plug-In . SVG Version: 1.2.0 Build 142)  -->
  <g>
    <g id="Layer_1">
      <g>
        <path class="cls-1" d="M787.6,91.45c32.92,9.16,55.09,31.37,75.47,57.81,68.94,89.43,138.82,178.15,209.1,266.53,27.1,34.08,33.02,70.24,14.2,109.03-18.91,38.97-51.84,56.62-94.84,56.22-17.67-.16-35.34-.03-54.37-.03v145.9c5.75.28,11.96.84,18.17.85,46.13.08,92.26-.42,138.39.15,90.57,1.12,159.69,53.92,184.62,140.26.97,3.34,2.18,6.62,3.53,10.69,67.73,7.33,131.77,26.51,192.02,58.38,188.1,99.49,296.36,308.41,268.98,519.6-33.61,259.23-249.79,450.4-512.2,451.23-261.4.83-522.8.3-784.2.12-81.23-.06-141.8-36.26-174.98-110.3-32.97-73.57-21.79-142.99,32.2-204.28,1.89-2.15,3.57-4.49,5.28-6.66-77.19-82.94-69.22-196.37.54-269.25-35.25-37.16-55.44-81.18-55.44-133.3,0-52.14,19.24-96.57,56.07-134.62-24.83-25.94-42.9-54.66-51.06-88.76-28.65-119.8,58.99-231.1,183.88-233.09,46.12-.73,92.26-.13,138.39-.14,6.44,0,12.87,0,20.48,0v-146.8c-17.19,0-34.66-.27-52.12.05-44.24.82-78.75-16.36-98.14-56.83-19.05-39.77-10.62-76.46,16.45-110.63,73.79-93.15,147.15-186.64,220.12-280.44,16.83-21.64,38.81-33.75,64-41.72h35.49ZM1640.59,1391.77c.19-227.59-183.84-408.8-415.39-409-217.52-.19-402.85,185.88-403.07,404.7-.23,228.03,180.4,413.99,402.5,414.36,232.13.39,415.77-180.64,415.96-410.06ZM1169.41,879.23c-18.16-32.2-44.72-44.92-78.47-44.93-215.09-.03-430.18-.18-645.27.11-49.51.07-84.92,34.36-85.12,80.6-.21,47.13,35.55,81.31,86.03,81.37,147.13.18,294.27.2,441.4-.29,7.97-.03,17.31-3.53,23.67-8.45,63.12-48.81,133.06-82.76,211.29-99.2,14.81-3.11,29.69-5.89,46.46-9.2ZM555.77,474.57c20.11,0,36.75-.15,53.39.03,56.98.62,99.52,42.8,100.18,99.97.48,41.38.11,82.78.12,124.16,0,9.26,0,18.51,0,27.65h119.86c0-49.78-.19-98.15.05-146.52.32-64.58,41.01-105.13,105.27-105.3,14.87-.04,29.74,0,48.1,0-72.75-92.63-142.66-181.64-213.51-271.84-71.25,90.75-140.93,179.48-213.45,271.85ZM914.79,1801.83c-2.83-3.8-3.58-5.38-4.8-6.37-50.79-40.83-92.32-89.53-125.8-145.44-3.27-5.46-12.86-10.06-19.54-10.1-105.85-.62-211.7-.59-317.55-.21-11.03.04-22.57,1.76-32.99,5.29-37.69,12.79-58.6,49.47-52.46,89.92,5.63,37.09,38.92,66.15,78.39,66.66,53.8.68,107.62.23,161.44.23,103.47.01,206.94,0,313.32,0ZM804.04,1103.62c-7.25-.35-11.18-.7-15.11-.7-115.2-.03-230.41-.19-345.61.06-46.67.1-81.85,34.23-82.76,79.25-.91,44.99,32.93,81.88,79.45,82.46,93.33,1.16,186.69.52,280.03,0,4.74-.03,12.52-5.02,13.7-9.18,15.1-53.21,38.17-102.68,70.3-151.91ZM730.53,1532.01c-6.19-53.33-12.28-105.77-18.51-159.41.63.2-1-.75-2.62-.75-91.55,0-183.11-.24-274.66.37-23.82.16-43.2,11.87-57.4,30.68-19.43,25.75-22.74,54.33-9.18,83.49,13.91,29.92,38.41,46.2,71.6,46.38,94.51.49,189.02.24,283.53.19,3.36,0,6.71-.87,7.24-.94Z"/>
        <path class="cls-1" d="M1342.13,1210.08c.3,35.9-32.05,60.28-68.18,51.35-10.87-2.69-21.59-6.99-32.59-7.92-10.28-.87-22.68-1.25-30.8,3.67-8.32,5.04-14.48,16.07-18.11,25.78-4.21,11.25,3.93,18.84,13.96,23.23,29.15,12.75,58.19,25.79,87.65,37.76,44.86,18.24,76.5,48.65,89.58,96,20.05,72.54-16.21,150.77-85.21,183.78-9.29,4.44-14.65,8.88-16.44,19.84-5.01,30.66-23.44,47.61-49.86,48.23-27.38.64-46.86-16.18-54.6-45.82-1.13-4.32-6.11-8.87-10.44-10.9-21.78-10.25-44.81-18.13-65.75-29.82-27.09-15.12-35.1-46.57-20.98-71.89,14.33-25.69,46.9-35.51,73.69-19.03,24.44,15.04,49.85,20.41,77.67,18.5,22.19-1.53,37.72-12.67,46.51-32.86,10.95-25.17,2.76-45.62-22.36-56.43-31.41-13.51-63.6-25.41-94.23-40.5-49.63-24.44-79.07-63.28-76.02-121.07,3-56.65,29.52-98.32,81.19-123.58,4.88-2.38,9.51-9.73,10.28-15.32,3.91-28.45,23.73-48.75,50.82-50.29,26.21-1.49,50.93,17.63,54.36,45.7,1.66,13.62,7.89,17.32,18.89,20.58,26.69,7.9,40.77,26.04,40.98,51.02Z"/>
      </g>
    </g>
  </g>
</svg>