<?xml version="1.0" encoding="UTF-8"?>
<svg xmlns="http://www.w3.org/2000/svg" version="1.1" viewBox="0 0 2000 2000">
  <defs>
    <style>
      .cls-1 {
        fill: #fff;
      }
    </style>
  </defs>
  <!-- Generator: Adobe Illustrator 28.7.1, SVG Export Plug-In . SVG Version: 1.2.0 Build 142)  -->
  <g>
    <g id="Layer_1">
      <g>
        <path class="cls-1" d="M1035.45,175.04c32.9,7.11,66.66,11.55,98.56,21.79,189.29,60.76,315.58,247.1,300.28,440.83-16.24,205.8-164.46,369.03-364.63,401.56-247.16,40.17-476.69-136.03-502.24-385.56-24.25-236.77,148.71-450.63,384.71-475.8,4.19-.45,8.28-1.85,12.42-2.81,23.63,0,47.26,0,70.89,0ZM999.49,948.42c186.29.23,338.45-151.29,338.86-337.47.42-186.38-150.9-338.68-337.05-339.23-187.08-.55-339.59,151.32-339.64,338.23-.05,186.25,151.64,338.23,337.83,338.46Z"/>
        <path class="cls-1" d="M1000.06,1824.96c-222.26,0-444.52,0-666.78,0-40.68,0-58.74-18.42-58.19-59.21,4.08-305.79,229.95-567.48,532.82-616.5,27.45-4.44,55.51-6.58,83.32-6.98,69.78-1,139.58-1,209.37-.32,280.6,2.75,527.77,193.97,601.47,464.82,14.29,52.54,22.02,106.01,22.86,160.46.59,38.62-18.08,57.71-56.47,57.71-222.8.03-445.59.01-668.39.01ZM1627.2,1727.54c-4.17-24.36-7.34-46.63-11.84-68.63-48.34-236.46-265.87-416.98-506.89-420.15-73.01-.96-146.06-1.19-219.05.41-31.46.69-63.54,3.8-94.08,11.08-205.31,48.93-338.74,176.03-402.17,376.53-10.18,32.17-14.31,66.24-21.51,100.76h1255.54Z"/>
      </g>
    </g>
  </g>
</svg>