<?xml version="1.0" encoding="UTF-8"?>
<svg xmlns="http://www.w3.org/2000/svg" version="1.1" viewBox="0 0 2000 2000">
  <defs>
    <style>
      .cls-1 {
        fill: #fff;
      }
    </style>
  </defs>
  <!-- Generator: Adobe Illustrator 28.7.1, SVG Export Plug-In . SVG Version: 1.2.0 Build 142)  -->
  <g>
    <g id="Layer_1">
      <path class="cls-1" d="M985.75,1902.83c-23.44-11.84-46.73-24-70.35-35.46-235.73-114.35-471.36-228.91-707.49-342.43-29.53-14.2-41.05-33.97-40.98-66.21.67-307.12.64-614.24.04-921.35-.06-31.6,11.66-50.88,40.46-64.74,252.48-121.55,504.6-243.85,756.46-366.67,24.61-12,45.49-11.53,69.95.41,248.11,121.15,496.08,242.59,745.56,360.86,41.12,19.5,53.84,43.78,53.67,86.49-1.22,300.64-.96,601.29-.2,901.94.08,33.62-11.69,54.13-42.52,68.94-259.46,124.63-518.39,250.37-777.45,375.83-.97.47-1.62,1.6-2.42,2.41h-24.72ZM952,1782.79c.36-7.28.73-11.36.73-15.43.03-273.53-.1-547.05.4-820.58.02-13.36-5.86-18.14-16.22-23.15-219.92-106.44-439.71-213.16-659.55-319.78-5.49-2.66-11.28-4.72-18.42-7.67v20.1c0,270.58.12,541.17-.34,811.75-.02,14.41,4.42,21.34,17.45,27.63,213.19,102.84,426.07,206.28,639.04,309.58,11.49,5.57,23.06,10.97,36.91,17.55ZM1369.95,773.9c-8.59,3.9-13.86,6.15-19.01,8.64-96.23,46.61-192.32,93.51-288.8,139.59-13.5,6.45-18.31,13.93-18.28,29.19.53,270.06.38,540.13.38,810.19v20.87c8.08-3.46,13.46-5.52,18.62-8.02,220.4-106.96,440.73-214.04,661.27-320.71,11.61-5.62,16.04-11.98,16.02-25.2-.42-271.83-.31-543.66-.35-815.49,0-5.52-.52-11.03-.87-17.98-6.32,2.61-10.16,3.98-13.81,5.75-83.52,40.5-166.93,81.24-250.65,121.31-10.11,4.84-13.23,10.58-13.17,21.42.43,79.43.28,158.86.17,238.29-.01,7.61-.16,15.38-1.63,22.8-4.6,23.32-25.34,38.72-48.67,36.85-21.65-1.73-40.01-20.71-40.88-43.53-.74-19.39-.32-38.82-.33-58.24-.03-54.03,0-108.05,0-165.72ZM1322.22,694.48c-4.35-2.73-6.24-4.18-8.33-5.2-219.97-106.62-439.91-213.28-660.14-319.35-6.48-3.12-17.23-2.46-23.93.74-89.63,42.76-178.88,86.29-268.23,129.62-13.52,6.56-27.05,13.11-42.57,20.62,5.5,3.28,8.77,5.56,12.31,7.28,218.35,105.91,436.67,211.87,655.28,317.24,6.57,3.17,17.35,2.9,24.03-.28,76.42-36.31,152.42-73.51,228.55-110.46,26.89-13.05,53.8-26.06,83.04-40.22ZM749.35,312.74c5.65,3.3,9.45,5.86,13.53,7.84,217.79,105.66,435.57,211.36,653.62,316.49,6.58,3.17,17.36,2.95,24.03-.22,75.37-35.78,150.32-72.43,225.34-108.94,3.5-1.7,6.61-4.2,10.7-6.84-3.2-1.9-5.11-3.23-7.19-4.23-219.93-106.64-439.84-213.33-660.03-319.43-6.5-3.13-17.29-2.43-24.04.78-72.16,34.31-143.91,69.48-215.77,104.44-6.16,3-12.25,6.13-20.19,10.12Z"/>
    </g>
  </g>
</svg>